#!OML:ASF Y:\EmotionMaleHayes\Project 1\Capture day 1\Session 1\Male1.ASF
:FULLY-SPECIFIED
:DEGREES
1881
root -14.6304 16.6963 17.0535 519.332 -69.3317 559.475
lowerback 7.9589 3.91278 9.32497
upperback 0.607145 6.01521 2.50625
thorax -3.13323 2.8241 -3.17763
lowerneck -20.6387 -7.29149 -2.88303
upperneck 19.1821 -9.63632 1.54789
head 9.68326 -4.53128 -0.379212
rclavicle -3.21161e-014 8.34896e-015
rhumerus -14.3999 12.4998 -81.1135
rradius 42.312
rwrist -0.692949
rhand -9.42538 -32.4818
rfingers 7.12502
rthumb 16.5369 -61.7971
lclavicle -3.21161e-014 8.34896e-015
lhumerus -50.9252 5.09243 73.0103
lradius 25.1751
lwrist -7.58211
lhand -14.6543 -22.1009
lfingers 7.12502
lthumb 11.4981 7.5638
rfemur 19.3222 -5.7648 29.1613
rtibia 5.19028
rfoot -14.0464 21.4756
rtoes 32.2175
lfemur -21.7688 -3.519 -2.00788
ltibia 15.3049
lfoot -4.83083 3.50081
ltoes -14.1596
1882
root -14.7477 16.6645 17.0354 519.505 -67.9725 559.873
lowerback 7.9363 4.20019 9.62419
upperback 0.297691 6.44687 2.5912
thorax -3.3732 3.01197 -3.29741
lowerneck -20.1828 -7.50394 -3.42996
upperneck 18.9227 -9.95832 2.33598
head 9.59388 -4.64001 -0.0520367
rclavicle -3.73964e-014 3.33958e-014
rhumerus -14.4506 13.0022 -81.3102
rradius 42.6789
rwrist -1.02707
rhand -9.47569 -32.6953
rfingers 7.12502
rthumb 16.4885 -62.0147
lclavicle -3.73964e-014 3.33958e-014
lhumerus -51.6239 5.45186 72.422
lradius 25.3464
lwrist -7.92765
lhand -14.2078 -21.8067
lfingers 7.12502
lthumb 11.9288 7.83346
rfemur 19.0173 -5.19306 29.7155
rtibia 5.65863
rfoot -13.9861 22.2521
rtoes 32.8365
lfemur -22.0512 -3.69345 -0.806339
ltibia 13.2459
lfoot -4.93326 3.53641
ltoes -12.4406
1883
root -14.8775 16.6411 17.0176 518.953 -67.0523 560.688
lowerback 7.61169 4.3357 10.1578
upperback 0.429316 6.61187 2.65222
thorax -2.98006 3.10525 -3.49508
lowerneck -20.495 -7.52464 -2.93425
upperneck 19.4632 -9.9594 1.49908
head 9.76374 -4.69118 -0.437683
rclavicle -8.28311e-014 -1.11319e-014
rhumerus -13.9391 13.1038 -81.397
rradius 42.8753
rwrist -1.21036
rhand -9.46626 -32.7173
rfingers 7.12502
rthumb 16.4976 -62.0359
lclavicle -8.28311e-014 -1.11319e-014
lhumerus -51.6923 5.76311 72.0674
lradius 25.3323
lwrist -7.91754
lhand -14.0883 -21.6354
lfingers 7.12502
lthumb 12.044 7.99805
rfemur 19.2306 -5.05693 30.1758
rtibia 5.86823
rfoot -14.1678 22.7836
rtoes 32.6586
lfemur -22.0543 -4.04817 0.200907
ltibia 11.2698
lfoot -5.16533 3.19785
ltoes -11.5428
1884
root -15.0015 16.6158 16.9981 518.681 -66.2844 561.074
lowerback 7.58458 4.35808 10.3688
upperback 0.492203 6.64565 2.68598
thorax -2.87434 3.12406 -3.56928
lowerneck -19.933 -7.57504 -3.27988
upperneck 18.6925 -10.1152 2.40669
head 9.46887 -4.70228 -0.0597793
rclavicle 1.63997e-014 2.50469e-014
rhumerus -13.6922 13.562 -81.61
rradius 43.1659
rwrist -1.37436
rhand -9.50454 -32.5862
rfingers 7.12502
rthumb 16.4607 -61.9079
lclavicle 1.63997e-014 2.50469e-014
lhumerus -51.9218 5.93504 71.7914
lradius 25.3023
lwrist -7.41789
lhand -13.9228 -21.6134
lfingers 7.12502
lthumb 12.2035 8.01058
rfemur 19.6578 -4.53539 30.6511
rtibia 5.91037
rfoot -14.6214 22.6907
rtoes 31.6378
lfemur -22.0354 -4.43989 0.97683
ltibia 9.49876
lfoot -5.40611 2.98865
ltoes -12.7362
1885
root -15.1256 16.5914 16.978 519.319 -65.6099 560.419
lowerback 7.80889 4.37439 10.0086
upperback 0.442982 6.6741 2.67583
thorax -3.08733 3.13205 -3.41259
lowerneck -19.9882 -7.58546 -3.17275
upperneck 19.1135 -10.144 2.20529
head 9.6095 -4.72654 -0.160721
rclavicle 4.11112e-014 -1.19271e-015
rhumerus -13.703 14.329 -81.8153
rradius 43.5386
rwrist -1.453
rhand -9.45576 -32.404
rfingers 7.12502
rthumb 16.5077 -61.7218
lclavicle 4.11112e-014 -1.19271e-015
lhumerus -52.4762 6.27083 71.4077
lradius 25.4254
lwrist -7.32517
lhand -13.6672 -21.6018
lfingers 7.12502
lthumb 12.45 8.00741
rfemur 20.1283 -3.7691 30.7163
rtibia 5.97964
rfoot -15.1344 22.2915
rtoes 29.7954
lfemur -21.9143 -4.99191 1.26863
ltibia 7.90698
lfoot -5.72877 3.16199
ltoes -12.5542
1886
root -15.2594 16.566 16.9616 519.965 -64.9409 559.88
lowerback 7.56143 4.47395 9.98664
upperback 0.583926 6.75822 2.5617
thorax -2.7779 3.19501 -3.49246
lowerneck -20.0854 -7.76645 -3.51533
upperneck 19.1119 -10.4029 2.68275
head 9.68226 -4.81347 0.0116828
rclavicle 3.88997e-014 3.37934e-014
rhumerus -13.3303 14.6461 -81.9319
rradius 43.778
rwrist -1.39495
rhand -9.14332 -32.179
rfingers 7.12502
rthumb 16.8085 -61.4714
lclavicle 3.88997e-014 3.37934e-014
lhumerus -52.5732 6.4583 71.1531
lradius 25.4859
lwrist -7.42165
lhand -13.7948 -21.7976
lfingers 7.12502
lthumb 12.327 7.81904
rfemur 20.4175 -3.29681 30.6177
rtibia 6.24601
rfoot -15.3522 22.4262
rtoes 28.9651
lfemur -21.8919 -5.40799 1.49752
ltibia 6.5747
lfoot -6.01808 3.26565
ltoes -10.7173
1887
root -15.3924 16.5397 16.9446 519.856 -64.1048 560.241
lowerback 7.30796 4.56756 10.3616
upperback 0.658926 6.86723 2.56976
thorax -2.50029 3.2587 -3.66206
lowerneck -19.4314 -7.69073 -3.69249
upperneck 18.7192 -10.304 2.91851
head 9.44879 -4.77261 0.166489
rclavicle 8.35268e-014 2.98177e-014
rhumerus -13.2135 14.9504 -82.0868
rradius 44.1421
rwrist -1.4375
rhand -9.119 -32.0359
rfingers 7.12502
rthumb 16.8319 -61.3263
lclavicle 8.35268e-014 2.98177e-014
lhumerus -52.6485 6.4466 71.097
lradius 25.4651
lwrist -7.08149
lhand -14.0379 -22.0708
lfingers 7.12502
lthumb 12.0926 7.55978
rfemur 20.5939 -2.8025 30.9934
rtibia 6.67897
rfoot -15.3424 22.8686
rtoes 30.0892
lfemur -22.0184 -5.15073 2.1035
ltibia 5.68944
lfoot -6.31136 2.93788
ltoes -8.52471
1888
root -15.5176 16.5157 16.9236 519.63 -63.1361 560.649
lowerback 7.41034 4.64145 10.5798
upperback 0.622315 6.9954 2.67214
thorax -2.56577 3.31162 -3.69223
lowerneck -19.5399 -7.73665 -3.70065
upperneck 18.8854 -10.3936 2.99871
head 9.53489 -4.80207 0.173879
rclavicle -1.76049e-014 -4.19436e-014
rhumerus -13.2076 15.4063 -82.2835
rradius 44.3991
rwrist -1.48723
rhand -9.18938 -31.9973
rfingers 7.12502
rthumb 16.7641 -61.2935
lclavicle -1.76049e-014 -4.19436e-014
lhumerus -53.0102 6.64907 70.9086
lradius 25.6345
lwrist -6.83815
lhand -14.1349 -21.9659
lfingers 7.12502
lthumb 11.9991 7.67016
rfemur 20.7527 -2.27496 31.5316
rtibia 6.9799
rfoot -15.4578 22.7868
rtoes 29.9905
lfemur -22.0698 -4.53769 2.80988
ltibia 5.11206
lfoot -6.61585 2.29768
ltoes -8.34488
1889
root -15.6472 16.4927 16.901 519.745 -62.3233 560.591
lowerback 7.54319 4.68505 10.5678
upperback 0.597821 7.07142 2.70205
thorax -2.66068 3.34246 -3.67398
lowerneck -19.5234 -7.69328 -3.52405
upperneck 19.1004 -10.3596 2.80886
head 9.58476 -4.79432 0.0833025
rclavicle 3.21658e-014 2.14687e-014
rhumerus -13.0992 15.8029 -82.5101
rradius 44.5032
rwrist -1.59087
rhand -9.05587 -31.9785
rfingers 7.12502
rthumb 16.8927 -61.2638
lclavicle 3.21658e-014 2.14687e-014
lhumerus -53.4486 6.84492 70.7303
lradius 25.8899
lwrist -6.62981
lhand -14.243 -21.8318
lfingers 7.12502
lthumb 11.8948 7.81029
rfemur 21.0856 -1.33181 32.0034
rtibia 7.34829
rfoot -15.4315 22.4585
rtoes 31.6196
lfemur -22.0326 -3.95127 3.10108
ltibia 4.83485
lfoot -6.88006 1.61793
ltoes -8.58797
1890
root -15.7881 16.4699 16.8824 520.183 -61.7007 560.243
lowerback 7.37775 4.73356 10.5913
upperback 0.649929 7.10975 2.604
thorax -2.49251 3.37307 -3.7698
lowerneck -19.3672 -7.80264 -3.78506
upperneck 19.1204 -10.5254 3.13887
head 9.60481 -4.85622 0.215863
rclavicle -1.28899e-014 -2.08724e-015
rhumerus -13.0277 15.9375 -82.7718
rradius 44.6328
rwrist -1.84531
rhand -9.07625 -32.1424
rfingers 7.12502
rthumb 16.873 -61.4293
lclavicle -1.28899e-014 -2.08724e-015
lhumerus -53.5985 6.79314 70.7065
lradius 25.9225
lwrist -6.39938
lhand -14.2412 -21.8652
lfingers 7.12502
lthumb 11.8965 7.77683
rfemur 21.4714 -0.615283 32.0976
rtibia 7.62401
rfoot -15.6502 22.42
rtoes 32.1325
lfemur -22.0452 -3.54313 3.00746
ltibia 4.79708
lfoot -6.98313 0.971376
ltoes -10.2486
